{"title":"Saare Jahaan Se Mehnga 2013 Hindi Movies SCam Rip Sample Include","uid":8234549,"size":736990285,"categoryP":"video","categoryS":"movies","magnet":"?xt=urn:btih:d396f5f8ea3e2bff43243777a0b2efa8cfef90cb&amp;dn=Saare+Jahaan+Se+Mehnga+2013+Hindi+Movies+SCam+Rip+Sample+Include&amp;tr=udp%3A%2F%2Ftracker.openbittorrent.com%3A80&amp;tr=udp%3A%2F%2Fopen.demonii.com%3A1337&amp;tr=udp%3A%2F%2Ftracker.coppersurfer.tk%3A6969&amp;tr=udp%3A%2F%2Fexodus.desync.com%3A6969","seeders":0,"leechers":1,"uploader":"basicssom","files":3,"time":1362810953,"description":"Saare Jahaan Se Mehnga 2013 Hindi Movies SCam Rip Sample Included ~ rDX\n\nScreen Shots :\n &lt;a href=&quot;\nhttp://myimghosting.serveftp.com/13/SaareJahaanSeMehnga.html&quot; rel=&quot;nofollow&quot; target=&quot;_NEW&quot;&gt;\nhttp://myimghosting.serveftp.com/13/SaareJahaanSeMehnga.html&lt;/a&gt;\n &lt;a href=&quot;\nhttp://myimghost.cwahi.net/SaareJahaanSeMehnga.html&quot; rel=&quot;nofollow&quot; target=&quot;_NEW&quot;&gt;\nhttp://myimghost.cwahi.net/SaareJahaanSeMehnga.html&lt;/a&gt;\n\n\nFormat                                   : MPEG-4\nFormat profile                           : Base Media\nCodec ID                                 : isom\nFile size                                : 685 MiB\nDuration                                 : 1h 40mn\nOverall bit rate mode                    : Variable\nOverall bit rate                         : 950 Kbps\nWriting application                      : Lavf52.34.0\n\nVideo\nID                                       : 1\nFormat                                   : MPEG-4 Visual\nFormat profile                           : Simple@L1\nFormat settings, BVOP                    : No\nFormat settings, QPel                    : No\nFormat settings, GMC                     : No warppoints\nFormat settings, Matrix                  : Default (H.263)\nCodec ID                                 : 20\nDuration                                 : 1h 40mn\nBit rate                                 : 318 Kbps\nWidth                                    : 352 pixels\nHeight                                   : 288 pixels\nDisplay aspect ratio                     : 1.222\nOriginal display aspect ratio            : 4:3\nFrame rate mode                          : Constant\nFrame rate                               : 25.000 fps\nStandard                                 : PAL\nColor space                              : YUV\nChroma subsampling                       : 4:2:0\nBit depth                                : 8 bits\nScan type                                : Progressive\nCompression mode                         : Lossy\nBits/(Pixel*Frame)                       : 0.126\nStream size                              : 230 MiB (34%)\nWriting library                          : Lavc52.30.1\n\nAudio\nID                                       : 2\nFormat                                   : AAC\nFormat/Info                              : Advanced Audio Codec\nFormat profile                           : LC\nCodec ID                                 : 40\nDuration                                 : 1h 40mn\nBit rate mode                            : Variable\nBit rate                                 : 152 Kbps\nChannel(s)                               : 2 channels\nChannel positions                        : Front: L R\nSampling rate                            : 44.1 KHz\nCompression mode                         : Lossy\nStream size                              : 110 MiB (16%)","torrent":{"xt":"urn:btih:d396f5f8ea3e2bff43243777a0b2efa8cfef90cb","amp;dn":"Saare+Jahaan+Se+Mehnga+2013+Hindi+Movies+SCam+Rip+Sample+Include","amp;tr":["udp%3A%2F%2Ftracker.openbittorrent.com%3A80","udp%3A%2F%2Fopen.demonii.com%3A1337","udp%3A%2F%2Ftracker.coppersurfer.tk%3A6969","udp%3A%2F%2Fexodus.desync.com%3A6969"],"infoHash":"d396f5f8ea3e2bff43243777a0b2efa8cfef90cb","infoHashBuffer":{"type":"Buffer","data":[211,150,245,248,234,62,43,255,67,36,55,119,160,178,239,168,207,239,144,203]},"announce":[],"urlList":[]}}